<svg width="120" height="120" viewBox="0 0 120 120" fill="none" xmlns="http://www.w3.org/2000/svg">
  <defs>
    <linearGradient id="docusense-bg-grad" x1="100%" y1="0%" x2="0%" y2="100%">
      <stop offset="0%" stop-color="#00d285" />
      <stop offset="50%" stop-color="#00b372" />
      <stop offset="100%" stop-color="#004d40" />
    </linearGradient>
  </defs>
  
  <rect width="120" height="120" rx="28" fill="url(#docusense-bg-grad)" />

  <path d="M 32 20 H 62 C 82 20 98 34 98 60 C 98 86 82 100 62 100 H 32 V 20 Z" fill="#ffffff" />
  <path d="M 48 34 H 58 C 70 34 80 43 80 60 C 80 77 70 86 58 86 H 48 V 34 Z" fill="url(#docusense-bg-grad)" />

  <g transform="translate(51, 41)">
    <path d="M 2 0 H 14 L 20 6 V 34 H 2 Z" fill="none" stroke="#ffffff" stroke-width="3.5" stroke-linejoin="round" />
    <path d="M 14 0 V 6 H 20" fill="none" stroke="#ffffff" stroke-width="3.5" stroke-linejoin="round" />
    <line x1="6" y1="12" x2="16" y2="12" stroke="#ffffff" stroke-width="2.5" stroke-linecap="round" />
    <line x1="6" y1="18" x2="16" y2="18" stroke="#ffffff" stroke-width="2.5" stroke-linecap="round" />
    <line x1="6" y1="24" x2="13" y2="24" stroke="#ffffff" stroke-width="2.5" stroke-linecap="round" />
  </g>

  <rect x="20" y="82" width="8" height="8" rx="2" fill="#00d285" />
  <rect x="12" y="90" width="7" height="7" rx="1.5" fill="#00e699" />
  <rect x="22" y="92" width="6" height="6" rx="1.5" fill="#33efa0" />
  <rect x="10" y="99" width="5" height="5" rx="1" fill="#66f3b8" />
  <rect x="17" y="101" width="4" height="4" rx="1" fill="#ffffff" />
  <rect x="27" y="99" width="5" height="5" rx="1" fill="#00d285" />
  <rect x="28" y="90" width="5" height="5" rx="1" fill="#009966" />
</svg>
